<svg xmlns="http://www.w3.org/2000/svg" viewBox="0 0 212.28 102.52"><defs><style>.cls-1{fill:#fff;}.cls-2{fill:#f58220;}</style></defs><title>AVV</title><g id="Слой_2" data-name="Слой 2"><g id="Слой_1-2" data-name="Слой 1"><g id="Слой_2-2" data-name="Слой 2"><g id="Слой_1-2-2" data-name="Слой 1-2"><path class="cls-1" d="M113.83,102.52c8.66-4.75,12.89-12.32,15.53-21.25,7.53-25.5,15.21-51,22.84-76.43.42-1.42.9-2.82,1.55-4.84l58.53,8.9c-4,13-7.9,25.51-11.77,38-3.34,10.8-6.51,21.65-10,32.38-3.63,11-11.71,17.66-22.93,18.93C149.7,100.25,131.74,101.15,113.83,102.52Z"/><path class="cls-2" d="M78,21.82l52.13,4.5c-1.53,5.46-2.85,10.36-4.28,15.22Q120.69,59,115.47,76.4a39.08,39.08,0,0,1-1.25,3.79c-1.41,3.4-2.7,7.35-7.29,7-4.14-.31-5.46-3.93-6.41-7.38-1.76-6.4-3.41-12.81-5.07-19.27-1.57-6.11-3.18-12.22-4.61-18.36C88.93,33.89,86.33,26.1,78,21.82Z"/><path class="cls-1" d="M43.58,95.71c5.89-2.92,8.24-7.94,9.73-13.51,3.4-12.69,6.69-25.41,10-38.11.34-1.29.67-2.58,1-3.86.86-3.17,2.75-6,6.11-5.29A8.91,8.91,0,0,1,76.09,40c2.81,9.21,4.93,18.64,7.3,28L90,94Z"/><path class="cls-2" d="M22.39,34.75l31.28,2.91c-.74,3.1-1.38,5.91-2.09,8.71-2.66,10.45-5.23,20.92-8.13,31.3-.49,1.74-2.4,3.09-3.66,4.61-1.23-1.57-3.09-3-3.58-4.72-2.8-10.06-5-20.29-8-30.3C26.89,42.76,24.25,38.65,22.39,34.75Z"/><path class="cls-1" d="M0,91.45,3.33,76.3H24.78l4.77,15.15Z"/><path class="cls-1" d="M22.72,66.34l-17.41,1C6.82,60.59,8,54.27,9.78,48.11c.43-1.49,2.67-3.37,4.11-3.4s3.45,2,3.94,3.46C19.7,54,21.06,60,22.72,66.34Z"/></g></g></g></g></svg>