<svg xmlns="http://www.w3.org/2000/svg" width="41" height="41" viewBox="0 0 409.47 409.47"><title>Плюс</title><g id="Слой_2" data-name="Слой 2"><g id="Слой_1-2" data-name="Слой 1"><path d="M195,195v-5.37q0-88,0-176c0-1.47-.05-2.94.09-4.4.51-5.43,4.64-9.35,9.69-9.28s9.07,4,9.54,9.46c.12,1.46.07,2.93.07,4.4q0,88,0,176V195H396.28c8.63,0,13.35,3.54,13.18,9.88s-4.66,9.5-13.15,9.5H214.42v5.17q0,88,0,176a46.26,46.26,0,0,1-.11,4.79c-.55,5.27-4.49,9-9.47,9.08s-9.2-3.84-9.71-9.26c-.14-1.45-.09-2.93-.09-4.4q0-88,0-176v-5.39h-5.27q-88.2,0-176.39,0A27.11,27.11,0,0,1,7,213.88,9.46,9.46,0,0,1,7,195.6a26.87,26.87,0,0,1,6.34-.54q88.2,0,176.39,0Z" fill="#f07d00"/></g></g></svg>