<svg xmlns="http://www.w3.org/2000/svg" viewBox="0 0 384.13 223.98"><title>Вконтакте</title><g id="Слой_2" data-name="Слой 2"><g id="Слой_1-2" data-name="Слой 1"><path d="M224.38,54.55c0,13.37,0,26.74,0,40.12a36.08,36.08,0,0,0,.59,6.7c1.31,6.73,6,9.39,11.75,5.74a73,73,0,0,0,15.14-12.65C269.74,74.61,283,51.69,294.78,27.91c2.66-5.36,5.13-10.82,7.58-16.29C305.76,4,311.54,0,319.95,0c14.5,0,29,0,43.49,0a22,22,0,0,1,5.19.58c5.87,1.46,8.86,5.25,7.18,11.05a123.32,123.32,0,0,1-8.67,22.59c-13.4,25.76-30,49.53-46.69,73.22-8.06,11.44-7.62,14.72,1.91,24.87,15.22,16.2,30.42,32.44,45.08,49.14A102.73,102.73,0,0,1,381,202.06c7.07,13.65,1.82,21.73-13.53,21.8-12.87.06-25.75-.24-38.61.1a26.59,26.59,0,0,1-20.83-8.45c-8.33-8.63-16.18-17.75-24.86-26-9.21-8.76-18.91-17.05-28.85-25-5.75-4.59-12.36-8-20.24-7.7-6.11.25-8.52,2.07-9.08,8.11-.52,5.59-.66,11.22-.71,16.83-.09,8.87.11,17.75.06,26.62,0,8.14-2.9,12.6-10.93,13.6-10.09,1.25-20.49,2.19-30.54,1.15-38.85-4-70.09-23.27-96.74-50.76C68.57,154.22,55,133.05,41.88,111.62,25.95,85.56,12.23,58.43,3.54,29A129.29,129.29,0,0,1,.42,15.52C-1.4,5.48,2.68.26,12.8.12c15-.2,30,0,45-.06,7,0,12.07,3.2,14.78,9.53,3.29,7.68,6,15.58,9.23,23.3,11.48,27.92,24.85,54.82,44,78.45a102.59,102.59,0,0,0,11.38,11.35A16.17,16.17,0,0,0,143,125.8c4.2,1.32,7.38-.61,8.51-4.89a17.71,17.71,0,0,0,.72-4.42c.05-23.12.26-46.23,0-69.35A41.25,41.25,0,0,0,142.31,21a54.87,54.87,0,0,1-4.73-6.28c-3.83-6.31-.29-13.55,7-14.57A27.25,27.25,0,0,1,148.35,0Q179.66,0,211,0c9.76,0,13.19,3.18,13.31,12.92.17,13.87,0,27.74,0,41.62Z"/></g></g></svg>