<svg xmlns="http://www.w3.org/2000/svg" viewBox="0 0 307.41 307.17"><title>Вотсап</title><g id="Слой_2" data-name="Слой 2"><g id="Слой_1-2" data-name="Слой 1"><path d="M8.3,299.12c3.16-8.41,6.12-16.31,9.11-24.19,3.58-9.45,7.15-18.9,10.83-28.31a5.13,5.13,0,0,0-.68-5.44c-43.95-63.51-34.56-149,22.57-201C82.37,10.82,120.71-2.62,164.29.42,233.6,5.27,290,54.76,304.2,122.62c17.28,82.61-37,165-119.93,181.38-40.05,7.9-77.71,1.08-112.44-20.67a6.52,6.52,0,0,0-5.91-.66q-27.12,7.9-54.28,15.69C10.74,298.62,9.8,298.78,8.3,299.12Zm192.18-59.35c8,.18,14.89-2.33,20.5-8.31,4.19-4.46,8.76-8.56,13.1-12.87,7.48-7.42,7.68-18.3.35-25.81q-11.4-11.66-23.06-23.06c-9.23-9-22.26-6.1-27,5.81-3.32,8.35-11.55,12.63-20,9.7A60.68,60.68,0,0,1,150,178.14c-12.68-8.69-23.21-19.45-28.49-34.28-3.62-10.19,0-17.51,9.91-21.65,11.22-4.66,14.06-17.61,5.6-26.38Q125.3,83.7,113.17,72c-6.88-6.67-16.71-6.56-23.55.09-5.29,5.14-10.8,10.11-15.52,15.73a30.81,30.81,0,0,0-5.8,11.43c-2,7.44-.33,14.91,1.81,22.13,5.57,18.75,15.81,35,28,50,19.6,24.23,42.3,44.87,70.29,59.14C178.44,235.64,189,239.36,200.47,239.77Z"/></g></g></svg>