<svg xmlns="http://www.w3.org/2000/svg" viewBox="0 0 299.07 209.54"><defs><style>.cls-1{fill:#fff;}</style></defs><title>Дерево в архитектуре 2022</title><g id="Слой_2" data-name="Слой 2"><g id="Слой_1-2" data-name="Слой 1"><g id="Слой_2-2" data-name="Слой 2"><g id="Слой_1-2-2" data-name="Слой 1-2"><path class="cls-1" d="M93.85,207.82l-3.54-.74q1.41-19.86,2.82-39.59c-3-.56-3.14-.44-3.23,2.38l-1.18,36v.7c-.11,0-.18.1-.24.09-2.21-.38-2.25-.38-2.15-2.57q.8-17.73,1.65-35.46v-1.15H85.35l-.9,38c-1.19.13-1.56-.31-1.54-1.4q.2-17.76.33-35.51v-1H80.6L79.82,204c-1.21,0-1.5-.52-1.49-1.61q.13-16.8.2-33.6V167.4H76l-.81,34.88c-1.26,0-1.62-.57-1.61-1.67.1-10.64.14-21.28.25-31.91,0-1.1-.26-1.48-1.38-1.4-1.35.1-2.71,0-4.29,0l-.61,31.9c-2-1.07-3.9-2.06-5.77-3.12a1.14,1.14,0,0,1-.36-.89q.36-8.81.78-17.61c.16-3.35.36-6.7.56-10.27H57.49c-.19,0-.48.54-.52.86-.42,2.89-.79,5.78-1.18,8.67-.06.41-.15.82-.27,1.46a34.51,34.51,0,0,1-4.87-9.53c-.4-1.21-.94-1.64-2.19-1.54s-2.78,0-4.25,0l2,17.73-.3.19c-1.66-1.5-3.33-3-5-4.53-.21-.2-.18-.67-.21-1-.39-3.82-.74-7.64-1.17-11.45a1.15,1.15,0,0,0-.75-.88c-1.39-.09-2.79,0-4.39,0l.3,6.75c-2.48-1.62-3-4-2.79-6.7H0V102.59H12c-.31-2.47-.62-4.79-.9-7.12-.36-2.89-.78-5.78-1-8.69a12.61,12.61,0,0,1,.44-3.54,78.33,78.33,0,0,1,2-7.79l1.43,27h3.61V94.66c-.19-10.32-.47-20.67-.58-31,0-1.48.89-3,1.36-4.46l.31.1.93,43.25h3.12V95.41c-.09-14.32-.22-28.64-.24-43a6,6,0,0,1,1.52-3l.74,53.1h4v-1.62q-.27-28.37-.57-56.75a3.73,3.73,0,0,1,1.27-3L31,102.48h3.9c0-.25.06-.51,0-.78-.06-21.55-.08-43.11-.25-64.71a5.86,5.86,0,0,1,2.66-5.21c-.28,23.65-.15,47.15,1,70.7h3.37V96c-.17-14.4-.44-28.79-.48-43.19,0-7.87.36-15.75.53-23.63a2.79,2.79,0,0,1,1.11-2.36c.91-.7,1.74-1.5,2.9-2.5-.68,26.29-1.08,52.24.57,78.21h4V99.89c0-14.84-.12-29.68,0-44.51.09-11.44.44-22.87.72-34.3a2.76,2.76,0,0,1,1-1.68c1.14,27.69,2.35,55.3,1,83H57c.16-3.53.39-7,.45-10.54.3-17.71.62-35.43.78-53.14.07-7.43-.26-14.87-.38-22.31a1.57,1.57,0,0,1,.51-1.17c1.19-.8,2.45-1.48,4-2.41,0,30-1.64,59.74-1.57,89.58h4.4V96.94c.31-16.59.69-33.19.94-49.78.17-11.68.2-23.36.23-35a1.84,1.84,0,0,1,1.33-2c.92-.34,1.8-.8,3-1.33l-1.06,93.68h5V98.22q.47-27.17,1-54.34c.23-12.07.56-24.15.8-36.22,0-1.05.36-1.57,1.5-1.54l-1.2,96.37h2.84V95.44q.41-23.81.85-47.62c.27-14,.61-28.07.88-42.1,0-1.24.84-1.11,1.6-1.31l-1.41,98.1H84.4a4.73,4.73,0,0,0,.1-.66Q85,71,85.58,40.06c.2-11.84.29-23.67.39-35.51,0-1,.38-1.45,1.49-1.33l-1,99.28H90.7v-1.64q-.38-35-.74-70.07c-.09-8.92,0-17.84-.12-26.76,0-1.24.27-1.88,1.55-1.89a6.85,6.85,0,0,0,.9-.14c.91,33.53.5,67-.33,100.58h5.53c0-2.26.05-4.41,0-6.56-.29-10.55-.53-21.11-.95-31.65s-1.13-21-1.56-31.5c-.41-10-.62-20.06-.91-30.1V1.61l5-.83c-.15,1.71-.28,3.31-.45,4.92-.87,8.51-1.84,17-1.58,25.6.2,7,.76,14,1.31,20.94.59,7.45,1.47,14.87,2,22.32.69,9.09,1.18,18.19,1.76,27.28a2.1,2.1,0,0,0,.08.66h8.3V99.16c-.37-11.08-1.92-22-3.49-33-1.71-11.94-3.56-23.87-4.19-35.94a110.16,110.16,0,0,1,1.84-29c.18-.84.5-1.15,1.32-1.13s1.68,0,2.52-.06a2.43,2.43,0,0,1,.44.09c-.5,1.93-1.09,3.82-1.49,5.75-2.81,13.64-3.15,27.3.37,40.86.78,3,2.31,5.84,3.52,8.74a7,7,0,0,0,.75,1.11c.17-.2.29-.28.3-.37.81-12,1.73-24,2.35-36a53.93,53.93,0,0,0-2.08-18.39c-.17-.57-.36-1.14-.54-1.71V0h6V2.94c0,10.48-.61,20.94-1.57,31.37q-1.5,16.5-3,32.95a279.86,279.86,0,0,0-1.14,34.26,6,6,0,0,0,.06,1h5.08c.12-2.08.3-4.14.34-6.2.3-13,1.51-25.93,2.59-38.88.84-10.12,1.54-20.25,2-30.39.39-8.46.37-17,.52-25.42V.39l2,.23c1.48,34.13-.5,68-4.9,101.9h4c2.27-33.7,5.38-67.34,5-101.16,1-.1,1-.1,1,.82.1,8.6.3,17.2.23,25.79-.07,7.59-.35,15.19-.72,22.78-.4,8.06-1,16.12-1.55,24.17-.52,7.21-1.15,14.42-1.73,21.63-.16,1.95-.33,3.89-.51,5.94h3c1.08-16.78,2.28-33.52,3.2-50.27s1.33-33.55.89-50.35l.34-.08a3.85,3.85,0,0,1,.3,1c.12,10,.37,19.91.28,29.87-.08,9.51-.39,19-.85,28.54-.53,11.14-1.33,22.26-2,33.4-.16,2.59-.34,5.18-.51,7.77l.38-.09a4.93,4.93,0,0,1,.55,1.53v26.4H132l1.28-29.57h.07v31.74h3.46c1.89-42.87,4.36-85.72,3.72-128.64,1.38-.2,1.39.61,1.39,1.47,0,14.52,0,29-.14,43.55-.21,16-.61,32.07-1,48.1-.3,11.27-.77,22.54-1.16,33.81v1.72h4.32c2.28-42.15,4.51-84.23,3.76-126.65,1.8.69,3.43,1.27,5,2,.26.11.41.72.43,1.11.23,5.71.49,11.43.6,17.14q.24,12.29.29,24.59a280.44,280.44,0,0,1-2.3,33q-2.18,18.87-4.19,37.76c-.35,3.26-.48,6.54-.7,9.81v1.27h5.06c1.7-19.37,3.43-38.75,9.85-57.28,1.67,0,2.76.83,2.87,2.16,1,12.19,2,24.37,2.89,36.57.38,5.22.5,10.46.74,15.69,0,.91.1,1.83.16,2.84h3.9l-1.2-115a45.17,45.17,0,0,0,3.76,2.6c1.64.91,2,2.16,2,4,0,14.72.08,29.44.15,44.16q.16,31.5.33,63a11.14,11.14,0,0,0,.05,1.25H183L181.39,25.65c1.84.76,2.36,1.5,2.38,3.07q.32,36.47.65,72.95.13,14.76.24,29.52v1.17h2.79l-.68-102a2.63,2.63,0,0,1,1.52,2.42q.42,38.39.92,76.78.13,10.68.3,21.35v1.41h4v-1.45c-.49-15.15-1.09-30.29-1.46-45.44-.4-16-.6-32.07-.88-48.1V34.87a4.07,4.07,0,0,1,1.75,3.19q.38,33.65.9,67.3.18,12.42.39,24.83c0,.67.06,1.35.09,2.12h3.26l-1.89-92a3.86,3.86,0,0,1,1.59,2.84c.3,12.47.59,25,1,37.42.48,15.15,1.07,30.29,1.6,45.44.07,2.07,0,4.14,0,6.31h4.39c0-2.6.14-5.16,0-7.69-.56-8.85-1.27-17.7-1.84-26.55-.48-7.38-.94-14.76-1.26-22.15-.41-9.55-.66-19.1-1-28.65a1.23,1.23,0,0,1,.13-.65c1,1.78,2.7,3.13,2.8,5.49.49,11.62.87,23.25,1.71,34.85.6,8.24,2,16.42,2.84,24.64.71,6.63,1.2,13.29,1.79,19.94a2.93,2.93,0,0,0,.08.79h3.66c-2.14-22.38-3-44.76-3-67.24.13.25.27.5.38.75a50.16,50.16,0,0,1,4.08,19.43c.2,13.31.73,26.62,1,39.94a30.5,30.5,0,0,1-.94,5.75c-.07.42-.2.84-.33,1.4h16.21v34.91H194.74c-.3,1.74.52,3.71-1.54,4.75v-4.6H190c0,2.27-.11,4.51,0,6.73a3.67,3.67,0,0,1-2,3.6V167.45h-3.44v7.17c0,2,0,4-.11,6a5.41,5.41,0,0,1-.36,1.27l-.49-.08V167.44h-6.13v1.38c0,5.8,0,11.6.06,17.4a2,2,0,0,1-.93,1.9c-1.41,1-2.78,2-4.32,3.13V167.37a29.64,29.64,0,0,0-3,0c-.23,0-.55.59-.56.91-.09,2-.08,3.92-.13,5.88-.16,6.12-.36,12.23-.46,18.35a2.3,2.3,0,0,1-1.41,2.34c-1.1.53-2.13,1.21-3.28,1.86l1.43-29.3h-4.26c0,.54-.07,1.09-.07,1.63q-.17,12.48-.34,25c0,.84-.09,1.68-.13,2.52-.11,2.2-.11,2.2-2.48,3l.55-32.17h-4c-.23,0-.59.5-.61.78q-.53,10.24-1,20.49c-.19,4.23-.32,8.47-.54,12.7a1.48,1.48,0,0,1-.71,1,22.88,22.88,0,0,1-2.57,1l1.43-36H146c-.22,0-.54.68-.55,1-.12,3.88-.17,7.76-.28,11.63-.22,8-.48,15.91-.7,23.86,0,.6-.15.95-.8,1.09-1,.22-2,.55-3.18.9L142,167.37c-1.12,0-2.19-.05-3.24,0-.23,0-.56.59-.57.91-.2,4.75-.36,9.51-.51,14.27q-.39,12-.77,24.22l-2.17.52.62-39.89h-3.13L131,208l-1.93.37.91-40.92H126.3c0,.46-.12.93-.13,1.4q-.41,19.49-.81,39c0,.65,0,1.25-1,1-.49-13.74-.17-27.5.27-41.46-1.16,0-2.27-.05-3.36,0-.22,0-.54.61-.56.95-.22,4-.46,8.06-.56,12.1-.24,9.31-.41,18.63-.61,27.94a4.08,4.08,0,0,1-.07.89l-1.26.15c-.49-14-1.32-27.92-.75-42.07h-5.83c-.2,0-.51.55-.54.87q-.89,8-1.71,16.09-1.24,12-2.47,24a10,10,0,0,1-.23,1l-4.47-.35,1.19-41.57H95.66Zm46.29-66.71v15.58h4.61V151c1.36-.3,2.32-.25,3,1.05a39.45,39.45,0,0,0,2.81,4c.2.27.5.66.77.67,1.65.06,3.31,0,5.2,0-.35-.55-.54-.89-.77-1.2-1.47-2-3-4.08-4.39-6.14-.22-.31-.47-.92-.33-1.12,1.46-2.12,3-4.19,4.51-6.27l.23.08V145H161V156.7h4.69V145a4.07,4.07,0,0,1,.51-.09h2.88c1.72,0,1.72,0,1.89-1.63l.17-.09c.06,0,.13.1.16.17l5.3,12.31a2,2,0,0,1-2,3,13.93,13.93,0,0,1-2.76-.71,19.13,19.13,0,0,1-1.09,2.05c-.69,1-.22,1.45.7,1.86a6.77,6.77,0,0,0,9.51-3.67c1.79-4.05,3.48-8.15,5.21-12.22l2.12-5c-1.29,0-2.33.05-3.35,0a1.44,1.44,0,0,0-1.68,1.09c-1.19,3-2.49,6-3.83,9.22-.29-.68-.5-1.14-.7-1.62-1.08-2.62-2.18-5.23-3.23-7.86a1.13,1.13,0,0,0-1.24-.84H152a2,2,0,0,0-1.32.75,35.14,35.14,0,0,0-2.81,4c-.75,1.32-1.76,1.4-3.18,1.08V141ZM30.36,123.93V107.62H14.54c0,1.47.09,2.88,0,4.26-.24,3-.51,6-.93,9-.25,1.79-1.14,3.18-3.33,3v8h4.36v-4H28.75v4h4.41v-8Zm159.28,17.2v21.11h4.63v-6.77c3.77,2.29,7.88,1.84,10.43-1a8.93,8.93,0,0,0,.28-10.79,6.93,6.93,0,0,0-4.29-2.65,7.28,7.28,0,0,0-6.56,1.46l-.16-1.35ZM57.93,155.53c4.17,2.18,8.11,1.7,10.54-1.21a9,9,0,0,0,.19-10.61A7,7,0,0,0,64.39,141a7.39,7.39,0,0,0-6.57,1.4l-.22-1.29H53.27v21.07h4.66Zm-.55-29a7.93,7.93,0,0,0,10.4-.81,8.89,8.89,0,0,0,.35-10.87c-2.42-3.14-6.42-3.66-10.81-1.37l-.2-1.2H52.78v21.18h4.59Zm42.69,30.17h4.63V141c-1,0-2,.06-3,0a2.13,2.13,0,0,0-2,1c-2.1,2.65-4.27,5.23-6.61,8.08v-8.92H88.51v15.47c2.57.47,4.65.23,6.22-2.24a68.37,68.37,0,0,1,5.07-6.31l.27.06ZM11.92,141v15.62h9.85a6.43,6.43,0,0,0,2.42-.59,4.14,4.14,0,0,0,0-7.55,3.7,3.7,0,0,0,1.89-4.18c-.3-1.67-1.58-2.42-3-2.88a6.53,6.53,0,0,0-1.76-.31c-2.36-.06-4.71-.07-7.07-.1ZM90,112v16.1c3.83-.19,7.62-.2,11.36-.64,2.3-.27,3.29-2,3.27-4.32a3.51,3.51,0,0,0-2.11-3.28A11.63,11.63,0,0,0,104,117a3.38,3.38,0,0,0-3.06-4.32C97.37,112.19,93.69,112.19,90,112Zm-6.12,10.93c-4.05,2.19-7.42,1.61-8.18-1.5H87.1c.9-4.95-2.1-8.89-7.2-9.43a8.11,8.11,0,0,0-6.63,13.93c2.89,2.64,8.55,3,11.75.75a14.1,14.1,0,0,0,1.27-1.15Zm128.68,27.37H223c.88,0,1.17-.23,1.19-1.14.09-4.89-3-8.16-7.91-8.34a8.09,8.09,0,0,0-8,4.92,8.18,8.18,0,0,0,2,9.11c2.83,2.5,8.33,2.88,11.47.77a14.71,14.71,0,0,0,1.43-1.26l-2.46-2.65c-3.89,2.29-7.54,1.68-8.19-1.42ZM134,151.74c-4,2.24-7.38,1.66-8.17-1.46h10.52c.85,0,1.08-.28,1.1-1.1.13-4.93-3-8.25-8-8.38a8,8,0,0,0-8,5,8.13,8.13,0,0,0,2.11,9.09,10.42,10.42,0,0,0,11.38.74,15.8,15.8,0,0,0,1.48-1.27ZM49.94,121.4c1.06-4.81-2.08-8.87-7.17-9.43a8.12,8.12,0,0,0-9,6.5C33,123,35.44,126.88,40,127.76a18,18,0,0,0,5.56,0,5,5,0,0,0,3.56-2.29l-2.38-2.52c-4.06,2.19-7.66,1.54-8.1-1.51ZM37.51,146c.45-.25.78-.46,1.14-.62a6.84,6.84,0,0,1,4.88-.6,2.46,2.46,0,0,1,1.91,2.65c-1.19,0-2.39-.08-3.58,0a18.32,18.32,0,0,0-3.75.64,3.79,3.79,0,0,0-2.75,3.3,4.62,4.62,0,0,0,3.72,5.37l.28,0a7.21,7.21,0,0,0,6.3-1.38l.19,1.26h4.5c-.17-3.87-.26-7.69-.56-11.48a4.37,4.37,0,0,0-2.3-3.21c-3-1.86-8.81-1.48-11.66.84ZM123,120.07c0-4.78-3.55-8.15-8.59-8.14s-8.67,3.45-8.64,8.14,3.58,8,8.58,8.07S123,124.82,123,120.07ZM78.6,145.45c-1-1.34-1.82-2.51-2.69-3.65-.21-.27-.49-.69-.75-.7-1.61-.06-3.22,0-5.08,0,1.85,2.48,3.49,4.74,5.2,6.94a1.11,1.11,0,0,1,.08,1.57l-.08.08c-1.62,2-3.17,4.11-4.74,6.18a9.14,9.14,0,0,0-.53.93h4.48a1.67,1.67,0,0,0,1-.66c1-1.27,1.95-2.58,3-4,1,1.39,1.89,2.66,2.82,3.9.22.3.57.69.87.71,1.57.07,3.14,0,5,0l-6-8L87,141.08H82.36a1.56,1.56,0,0,0-.91.64C80.49,142.89,79.6,144.11,78.6,145.45ZM162,102.87h-.52a252.66,252.66,0,0,0-5,29.48h8.08Zm-40.63,38.3h-15v3.74h5.26v11.75h4.6V144.9h5.19Z"/><path class="cls-1" d="M247.66,189.26c0,4.25-.79,8.27-3.52,11.7a11.58,11.58,0,0,1-18.13-.32c-2.76-3.72-3.44-8-3.27-12.5a18.49,18.49,0,0,1,2.3-8.72,11.62,11.62,0,0,1,20.45.24A19.27,19.27,0,0,1,247.66,189.26Zm-21.83,0a18.86,18.86,0,0,0,1.6,8.1c1.66,3.35,4.32,5.18,8.12,5s6.11-2.11,7.55-5.36a19.75,19.75,0,0,0,1-12.21,14.48,14.48,0,0,0-2-4.94,8.31,8.31,0,0,0-13.51-.41c-2.27,2.9-2.66,6.34-2.77,9.78Z"/><path class="cls-1" d="M197.81,179.72l-2.09-1.8a9.65,9.65,0,0,1,4-3.07,16.37,16.37,0,0,1,10.28-1c6.15,1.34,8.85,7,5.91,12.61a20.73,20.73,0,0,1-3.54,4.64c-3.29,3.38-6.71,6.63-10.09,9.93a12.85,12.85,0,0,1-1,.82l.14.3h17v2.78H196.66a2.9,2.9,0,0,1,.83-3.06q6.07-5.71,12-11.63a20.53,20.53,0,0,0,3.65-4.7c2.12-4,.22-8.14-4.06-9a16.27,16.27,0,0,0-4.4-.17A10,10,0,0,0,197.81,179.72Z"/><path class="cls-1" d="M252.78,179.72l-2.09-1.78a9.31,9.31,0,0,1,3.94-3.07,16.39,16.39,0,0,1,11.13-.88c5.54,1.5,7.91,7.11,5.13,12.4a20.72,20.72,0,0,1-3.53,4.65c-3.29,3.38-6.71,6.63-10.09,9.93a3.08,3.08,0,0,0-.9,1.12h17v2.79H251.63a2.79,2.79,0,0,1,.8-3c4.07-3.84,8.1-7.73,12-11.71a19.92,19.92,0,0,0,3.63-4.71c2.06-4,.15-8-4.08-8.91a16.11,16.11,0,0,0-4.4-.18A10,10,0,0,0,252.78,179.72Z"/><path class="cls-1" d="M282.12,202.2h17v2.66H277.28a3,3,0,0,1,1-3.16c4-3.77,8-7.65,11.88-11.53A21.77,21.77,0,0,0,293,186.8a8.72,8.72,0,0,0,1.38-3.27c.71-4.28-1.79-7.07-6.41-7.31-3.63-.19-6.91.65-9.51,3.48l-2.17-1.83a16,16,0,0,1,1.83-1.7,15.32,15.32,0,0,1,14.52-1.76c4.31,1.58,6.25,6.24,4.44,10.71a17.66,17.66,0,0,1-3.53,5.34c-3.43,3.63-7.09,7-10.66,10.54-.31.3-.67.54-1,.81Z"/><path class="cls-1" d="M133.68,93.39a23.24,23.24,0,0,1-.49-3.84q.26-7.72.75-15.43c.49-7.77,1.26-15.53,1.58-23.31.55-13.14.85-26.28,1.22-39.43.07-2.44,0-4.88,0-7.32V2.78c.91-.2,1.17.14,1.16.93-.05,8.87,0,17.75-.14,26.62-.11,7.59-.37,15.18-.66,22.77-.33,8.66-.65,17.33-1.22,26-.29,4.33-1.12,8.63-1.71,12.94-.06.43-.11.87-.17,1.3Z"/><path class="cls-1" d="M161.62,50.21c-3.17-13.28-4-26.81-4.6-40.71,1.92,1,3.63,1.79,5.27,2.71.25.14.34.77.33,1.17-.15,8.75-.3,17.5-.51,26.25C162,43.16,161.79,46.69,161.62,50.21Z"/><path class="cls-1" d="M113.51,209.52v-6.71a34.2,34.2,0,0,1,.47,6.73Z"/><path class="cls-1" d="M18.92,111.48h6.56v12.34H17.32c.4-2,.91-4,1.17-6S18.78,113.65,18.92,111.48Z"/><path class="cls-1" d="M198,144.72a3.88,3.88,0,0,1,3.94,3.82q0,.19,0,.37a3.89,3.89,0,1,1-7.75,0,3.84,3.84,0,0,1,3.47-4.17Z"/><path class="cls-1" d="M61.72,144.71c2.27,0,3.82,1.69,3.84,4.15a3.89,3.89,0,1,1-4.2-4.14Z"/><path class="cls-1" d="M65.06,120c0,2.5-1.6,4.25-3.91,4.23a3.91,3.91,0,0,1-3.86-4q0-.12,0-.23A4,4,0,0,1,61,115.79h.19a3.93,3.93,0,0,1,3.84,4Q65.07,119.89,65.06,120Z"/><path class="cls-1" d="M16.25,153.37v-3c1.58,0,3.12-.07,4.66,0a1.5,1.5,0,0,1,0,3C19.39,153.43,17.88,153.37,16.25,153.37Z"/><path class="cls-1" d="M16.26,147.34v-3c1.39,0,2.73-.06,4.06,0a1.37,1.37,0,0,1,1.41,1.47,1.41,1.41,0,0,1-1.35,1.47H20.3C19,147.41,17.69,147.34,16.26,147.34Z"/><path class="cls-1" d="M94.26,124.57v-3.05c1.63,0,3.21-.06,4.78,0,.82,0,1.21.67,1.2,1.51A1.38,1.38,0,0,1,99,124.52h-.13C97.34,124.64,95.83,124.57,94.26,124.57Z"/><path class="cls-1" d="M94.26,115.51c1.44,0,2.79-.05,4.13,0a1.33,1.33,0,0,1,1.36,1.3s0,0,0,.07a1.3,1.3,0,0,1-1.07,1.5h-.12c-1.4.14-2.82.15-4.3.22Z"/><path class="cls-1" d="M75.55,118.54a3.66,3.66,0,0,1,7.19,0Z"/><path class="cls-1" d="M219.58,147.37h-7.13a3.39,3.39,0,0,1,3.49-3A3.51,3.51,0,0,1,219.58,147.37Z"/><path class="cls-1" d="M133,147.38h-7.13a3.24,3.24,0,0,1,3.29-3A3.58,3.58,0,0,1,133,147.38Z"/><path class="cls-1" d="M45.62,118.57H38.51a3.21,3.21,0,0,1,3.09-3A3.55,3.55,0,0,1,45.62,118.57Z"/><path class="cls-1" d="M45.42,150.36a2.33,2.33,0,0,1-1.2,2.88,3.36,3.36,0,0,1-3.64,0,1.71,1.71,0,0,1-.62-1.5,2.3,2.3,0,0,1,1.43-1.32A28.19,28.19,0,0,1,45.42,150.36Z"/><path class="cls-1" d="M110.56,120a3.93,3.93,0,0,1,3.67-4.17h.33c2.23.06,3.75,1.79,3.74,4.25s-1.59,4.2-3.94,4.15a3.9,3.9,0,0,1-3.81-4Q110.55,120.11,110.56,120Z"/></g></g></g></g></svg>