<svg xmlns="http://www.w3.org/2000/svg" viewBox="0 0 383.99 268.72"><title>Меню</title><g id="Слой_2" data-name="Слой 2"><g id="Слой_1-2" data-name="Слой 1"><path d="M192.37,115.1q85.12,0,170.24,0c11.28,0,18.79,5.57,21,15.43a19.08,19.08,0,0,1-15.19,22.59,36.14,36.14,0,0,1-6,.45q-170.43,0-340.85,0c-13,0-21.79-8.08-21.55-19.72A19,19,0,0,1,16.15,115.5a44.21,44.21,0,0,1,6.35-.38Q107.43,115.09,192.37,115.1Z"/><path d="M240.34,0q61.87,0,123.74,0c11.55,0,20,8.37,19.9,19.38A19.28,19.28,0,0,1,366.19,38.3c-.87.06-1.75.05-2.62.05q-123.55,0-247.11,0c-11.22,0-19.72-7.44-20.42-17.77C95.25,9.12,103.88.05,115.85,0Q170-.05,224.22,0Z"/><path d="M278.24,268.69c-28.73,0-57.47.09-86.2,0a19.14,19.14,0,1,1-.07-38.27c12.24-.09,24.48,0,36.73,0q67.65,0,135.29,0c10.88,0,19.28,7.6,20,17.83.74,11.28-7.83,20.43-19.51,20.46C335.7,268.75,307,268.69,278.24,268.69Z"/></g></g></svg>