<svg xmlns="http://www.w3.org/2000/svg" viewBox="0 0 316.47 317.34"><title>Плей</title><g id="Слой_2" data-name="Слой 2"><g id="Слой_1-2" data-name="Слой 1"><path d="M.15,158.43c0-35.86-.41-71.73.11-107.59C.83,11.24,37.84-11.58,73,6,141.54,40.3,209.75,75.19,278.11,109.79c10.79,5.46,20.92,11.75,28.42,21.51,14.46,18.85,13.06,41.58-3.59,58.84a83.17,83.17,0,0,1-22.76,16.26q-102.91,52-205.87,103.88c-13.88,7-28.62,9.71-43.47,3.89C13.38,307.33,4.35,293.23,1,275.32c-.93-5-.72-10.2-.72-15.3q-.08-50.8,0-101.6Z"/></g></g></svg>