<svg xmlns="http://www.w3.org/2000/svg" viewBox="0 0 307.19 307.19"><title>Телефон</title><g id="Слой_2" data-name="Слой 2"><g id="Слой_1-2" data-name="Слой 1"><path d="M52.81,0c8.9,0,17.8,0,26.7,0C94.72.05,105.2,9.82,105.58,25a213.82,213.82,0,0,0,9.09,56c2.46,8.24.16,15.64-5.1,22.4-8.65,11.12-17,22.45-25.57,33.63-1,1.25-.54,2.08,0,3.19,18,34.21,43.55,61.15,77.56,79.81,2.43,1.33,4.79,4,7.3,3.64,2.34-.31,4.4-2.87,6.55-4.5,9.95-7.55,19.82-15.19,29.84-22.64a23.47,23.47,0,0,1,20.2-4c9.29,2.26,18.41,5.25,27.89,6.76a215.73,215.73,0,0,0,28.35,2.43c12.31.32,21.12,7,24.47,18.29a26,26,0,0,1,1,7.4c0,18.1.07,36.2,0,54.29-.07,15.12-11,25.73-26.1,25.57-56.82-.61-109-16.43-156.13-48.22-45.5-30.71-79.33-71.41-101.45-121.69A274.1,274.1,0,0,1,2.26,60,312.92,312.92,0,0,1,0,26.77C-.26,10.71,10.29,0,26.41,0Q39.61,0,52.81,0Z"/></g></g></svg>