<svg xmlns="http://www.w3.org/2000/svg" viewBox="0 0 384.02 331.7"><title>Телеграм</title><g id="Слой_2" data-name="Слой 2"><g id="Слой_1-2" data-name="Слой 1"><path d="M150.75,221l38.38-34.54q66-59.45,132-118.92a25.28,25.28,0,0,0,5-5.54c.89-1.5,1.6-4.26.83-5.3s-3.64-1.53-5.31-1.12a27.21,27.21,0,0,0-7.77,3.52q-44,27.82-87.94,55.78Q163.65,154.43,101.39,194a6.85,6.85,0,0,1-6.57.82Q55.5,181.48,16.11,168.3c-5.18-1.75-9.83-4.37-13.18-8.82-4.28-5.69-3.95-11.41,1.48-15.93A39.17,39.17,0,0,1,15,137.31q170.3-67,340.73-133.6A57.43,57.43,0,0,1,373.09,0c7.74-.44,12.14,5.56,10.63,13.15q-27.11,136.61-54.24,273.21c-1.82,9.18-3.68,18.36-5.41,27.55-3,15.8-21.74,23.12-34.52,13.34q-65.65-50.2-131.24-100.46C155.85,224.94,153.41,223,150.75,221Z"/></g></g></svg>