<svg xmlns="http://www.w3.org/2000/svg" viewBox="0 0 639.43 449.07"><title>Ютуб</title><g id="Слой_2" data-name="Слой 2"><g id="Слой_1-2" data-name="Слой 1"><path d="M308.71,449.07c-50.14-1.51-100.08-2.27-149.93-4.79-28.71-1.45-57.63-3.91-85.83-9.25-32.45-6.14-52.85-27.7-61.07-59.79-6-23.48-8.62-47.57-9.44-71.73C1.18,266.27-.29,229,.05,191.76c.35-37.9,2.71-75.81,10.42-113.1C18.62,39.28,45.51,15,85,9.84c40.1-5.23,80.39-7.28,120.75-8C256.29.93,306.88-.2,357.46,0c41,.19,82.09,1.62,123.07,3.68a761.19,761.19,0,0,1,77.38,7.55c39.9,6.14,64.22,30.43,70.93,70.43A709,709,0,0,1,637,153.61c1.82,28.31,2.7,56.75,2.39,85.12-.44,40.35-2.4,80.68-9,120.62-2.83,17.23-7.22,33.8-18.45,47.81C597.28,425.48,578,435,555,438.08c-39.41,5.32-79.05,7.1-118.75,8.08C393.68,447.21,351.09,448.11,308.71,449.07ZM256.42,318.92,421.2,224,256.42,129.13Z"/></g></g></svg>